<svg width="94" height="38" viewBox="0 0 94 38" fill="none" xmlns="http://www.w3.org/2000/svg">
<path d="M0.876373 18.9585C0.798556 16.8948 1.18764 14.8311 2.13702 12.8612C3.24203 10.3129 4.90732 8.24916 7.19515 6.67011C8.68925 5.63825 10.3545 4.84091 12.1599 4.45006C14.2143 3.98103 16.1909 3.90286 18.3231 4.29372C22.5096 5.09106 25.669 7.46745 27.9569 10.9539C29.2175 12.9394 29.9334 15.0813 30.1669 17.4577C30.2447 18.8022 30.1669 20.1467 30.0891 21.4287C30.0112 22.1479 29.8556 22.7733 29.6222 23.4925C28.7506 26.4317 27.0231 28.8862 24.564 30.778C22.8987 32.1225 21.0934 32.998 19.039 33.467C16.9846 33.9361 14.8524 33.9361 12.798 33.6234C9.87208 33.1544 7.35079 31.7942 5.21859 29.5741C4.03576 28.3859 3.08639 27.0414 2.29265 25.5249C1.35884 23.4768 0.876373 21.2568 0.876373 18.9585ZM6.3236 19.0367C6.3236 19.4276 6.3236 19.8341 6.40142 20.1467C6.55705 22.2886 7.42861 24.196 8.9227 25.775C11.1327 27.9169 13.7318 28.8706 16.8134 28.5423C18.074 28.3859 19.2569 27.9951 20.3619 27.2759C22.8053 25.6031 24.4706 23.3986 24.7819 20.3813C25.0932 17.3639 24.4706 14.6748 22.4163 12.3766C21.0778 10.8757 19.4125 9.84384 17.4515 9.51552C15.5528 9.20284 13.5918 9.28101 11.7708 10.1565C9.94989 11.032 8.61143 12.2984 7.66206 13.9556C6.63487 15.5503 6.24578 17.2075 6.3236 19.0367Z" fill="white"/>
<path d="M87.4561 13.4553C86.5068 12.5016 85.4017 11.5167 84.3746 10.8757C82.0089 9.53116 79.4876 9.12467 76.8729 9.6875C74.0248 10.3285 71.986 11.9075 70.5542 14.4403C69.9161 15.5503 69.527 16.7385 69.527 18.0049C69.527 19.1931 69.527 20.4594 69.8382 21.6476C70.3051 23.3048 71.1767 24.665 72.4373 25.8532C75.2699 28.4641 78.5849 29.1833 82.3046 28.2296C84.5924 27.6824 86.0865 26.0877 87.0359 23.8677H79.7678C79.0518 23.8677 79.0518 23.8677 79.0518 23.1485V19.5057C79.0518 18.9585 79.0518 18.9585 79.6121 18.9585H92.561C93.1212 18.9585 93.1212 18.9585 93.1212 19.5057C93.1991 21.4131 92.9656 23.2267 92.2497 24.9777C91.4559 27.0414 90.2731 28.855 88.7012 30.3715C87.1293 31.8724 85.3084 32.9042 83.1762 33.3889C81.044 33.9361 78.8339 34.0299 76.7017 33.6234C75.052 33.3889 73.4645 32.9042 72.0483 32.2007C70.1495 31.247 68.4998 29.9024 67.2391 28.2296C65.9785 26.5724 65.1069 24.7432 64.5622 22.6795C64.0019 20.4594 63.9241 18.2394 64.4066 15.9412C65.1225 12.3766 67.0057 9.51552 69.776 7.29547C71.4257 5.95094 73.3245 5.07543 75.3788 4.68457C77.978 4.13738 80.5148 4.21555 83.1139 4.76274C86.1955 5.40374 88.7168 6.98279 90.849 9.20284C91.1602 9.51552 91.1602 9.59369 90.849 10.0002C89.8218 10.9539 88.8101 11.9232 87.8452 13.0176C87.4561 13.4553 87.6118 13.299 87.4561 13.4553Z" fill="white"/>
<path d="M39.147 12.3766C39.147 12.7674 39.2248 13.1739 39.2248 13.6429C39.3027 14.1901 39.3027 14.8311 39.3805 15.394C39.4583 15.7848 39.3027 15.863 38.9914 15.9412C38.1976 16.0193 37.4195 16.1757 36.7035 16.2538C36.0654 16.332 35.5207 16.4102 34.8826 16.4884C34.8048 16.4884 34.727 16.5665 34.5713 16.6447C36.2211 17.0355 37.8086 17.3639 39.4583 17.6765C38.2755 22.3512 37.1705 26.9476 36.0654 31.6222C35.5052 31.4659 35.0383 31.3877 34.5713 31.3095C33.4663 31.075 32.2835 30.7623 31.1785 30.434C30.7894 30.3558 30.7116 30.1995 30.7894 29.793C31.3497 27.7293 31.8166 25.7438 32.2835 23.6957C32.5948 22.3512 32.9216 21.0066 33.2329 19.6465C33.3885 18.8491 33.622 18.0674 33.7932 17.3482C33.871 16.801 34.0266 16.2382 33.9488 15.7692C33.7932 13.8618 33.5597 12.0483 33.3107 10.1409C33.0773 8.15535 32.9216 6.26362 32.6726 4.27808C32.5948 3.73089 32.6726 3.63708 33.2173 3.63708C34.3223 3.48074 35.3495 3.40257 36.3767 3.24623C36.7658 3.24623 37.0148 3.24623 37.3261 3.48074C40.501 6.10728 43.6449 8.65565 46.8821 11.1884C47.2712 11.5011 47.6758 11.8294 48.2205 12.2202C48.2984 12.0639 48.2984 11.9075 48.454 11.8294C50.8196 8.89016 53.1853 5.8884 55.551 2.94918C56.0179 2.40199 56.4225 1.83916 56.8894 1.29196C57.045 1.13562 57.2785 0.979278 57.4341 0.901108C58.617 0.744766 59.7998 0.666595 60.9826 0.510254C61.2939 0.510254 61.3717 0.510254 61.4495 0.822937C61.6051 2.80847 61.7608 4.62203 61.9942 6.45123C62.1499 8.28042 62.3833 10.0158 62.6323 11.845C62.7102 12.5642 62.7102 12.5642 61.9942 12.6424C60.8114 12.7987 59.6286 12.955 58.5236 13.2052H58.3679C57.0295 13.3615 57.1851 13.3615 57.1073 12.2515C57.0295 11.7043 57.0295 11.1415 56.9517 10.4223C56.7182 10.6568 56.5626 10.8132 56.4069 10.9695C55.691 11.7668 55.0685 12.6267 54.4304 13.5022C54.2747 13.7367 54.0413 13.8149 53.7923 13.8149C51.3488 14.1276 48.9053 14.5341 46.5397 14.9249C45.5903 15.0813 44.7187 15.1594 43.7849 15.3158C43.3959 15.394 43.069 15.3158 42.7577 15.0813C41.6527 14.1276 40.5477 13.2521 39.4427 12.3922C39.3027 12.2984 39.2248 12.2984 39.147 12.3766Z" fill="white"/>
<path d="M58.5703 37.2661C57.7765 37.1098 57.154 36.9534 56.5159 36.7971C55.6443 36.5626 54.7728 36.3281 53.839 36.0779C53.4499 35.9998 53.4499 35.8434 53.5277 35.5151C53.7611 34.4833 53.9946 33.4514 54.3214 32.4195C54.9595 29.8086 55.6599 27.1821 56.298 24.5712C56.5314 23.6957 56.6871 22.8202 56.9361 21.9603C57.0917 21.4131 57.0917 21.4131 57.652 21.4913C59.0683 21.7258 60.4068 22.0541 61.8386 22.3668C62.4767 22.5231 62.5545 22.5231 62.3055 23.1641C61.9164 24.7432 61.5118 26.3379 61.1227 27.9169C60.4846 30.3715 59.9399 32.826 59.3018 35.2962C59.2239 35.7653 59.0683 36.2499 58.9127 36.7189C58.8037 37.0316 58.6481 37.188 58.5703 37.2661Z" fill="white"/>
<path d="M53.6678 20.9441C51.4577 22.2886 49.2477 23.6332 46.9599 25.0715C45.6993 22.9296 44.3608 20.7877 43.0068 18.4895C46.6331 19.2869 50.1815 19.9904 53.6678 20.7877C53.5899 20.7877 53.5899 20.8659 53.6678 20.9441Z" fill="white"/>
</svg>
