<svg width="63" height="198" viewBox="0 0 63 198" fill="none" xmlns="http://www.w3.org/2000/svg">
<path d="M62 99C62 126.264 58.4824 150.907 52.8209 168.7C49.9884 177.603 46.6366 184.734 42.9621 189.619C39.2747 194.521 35.3911 197 31.5 197C27.6089 197 23.7253 194.521 20.0379 189.619C16.3634 184.734 13.0116 177.603 10.1791 168.7C4.51762 150.907 1 126.264 1 99C1 71.7357 4.51762 47.0927 10.1791 29.2996C13.0116 20.3973 16.3634 13.2657 20.0379 8.38107C23.7253 3.47939 27.6089 1 31.5 1C35.3911 1 39.2747 3.47939 42.9621 8.38107C46.6366 13.2657 49.9884 20.3973 52.8209 29.2996C58.4824 47.0927 62 71.7357 62 99Z" stroke="black" stroke-width="2"/>
</svg>
