<svg width="1280" height="396" viewBox="0 0 1280 396" fill="none" xmlns="http://www.w3.org/2000/svg">
<path d="M-104.135 171.375C-87.9328 177.362 -73.3644 184.237 -58.7155 193.435C10.5384 236.92 79.6581 279.541 157.814 305.593C241.201 333.389 331.331 342.709 418.002 325.522C468.1 315.588 538.51 289.871 546.659 230.79C554.544 173.625 510.165 125.264 469.817 91.8445C439.739 66.931 406.09 45.8916 371.192 28.4428C346.641 16.1673 319.857 4.26142 292.218 1.3766C214.546 -6.7306 245.897 118.398 273.958 150.89C297.632 178.301 337.546 197.644 374.344 192.138C400.103 188.283 417.831 171.553 404.283 145.606C387.234 112.951 336.668 102.886 304.824 117.428C256.126 139.665 242.499 210.907 253.658 258.135C272.853 339.371 360.237 379.73 435.613 389.758C498.04 398.063 562.925 394.367 624.892 384.289C662.312 378.203 698.27 366.19 735.566 359.726C787.882 350.658 840.328 361.136 892.865 362.506C1160.5 369.488 1291.39 222.904 1344 211.212" stroke="white" stroke-width="2" stroke-linecap="round"/>
</svg>
