<svg width="56" height="30" viewBox="0 0 56 30" fill="none" xmlns="http://www.w3.org/2000/svg">
<g clip-path="url(#clip0_62_645)">
<path d="M0.0380865 11.0467C-0.00905156 9.8131 0.226639 8.57946 0.801723 7.40189C1.47108 5.87852 2.47984 4.64488 3.8657 3.70095C4.77075 3.08413 5.7795 2.60749 6.8731 2.37385C8.11755 2.09347 9.31485 2.04674 10.6064 2.28039C13.1425 2.75703 15.0563 4.17759 16.4421 6.2617C17.2058 7.44861 17.6394 8.72899 17.7808 10.1495C17.828 10.9533 17.7808 11.757 17.7337 12.5234C17.6866 12.9533 17.5923 13.3271 17.4509 13.757C16.9229 15.514 15.8765 16.9813 14.3869 18.1122C13.3782 18.9159 12.2846 19.4393 11.0401 19.7196C9.79566 20 8.50408 20 7.25963 19.8131C5.48724 19.5327 3.95997 18.7196 2.66839 17.3925C1.95189 16.6823 1.37681 15.8785 0.895999 14.972C0.330342 13.7477 0.0380865 12.4206 0.0380865 11.0467ZM3.33775 11.0935C3.33775 11.3271 3.33775 11.5701 3.38489 11.757C3.47916 13.0374 4.00711 14.1776 4.91216 15.1215C6.25088 16.4019 7.82529 16.972 9.69196 16.7757C10.4556 16.6823 11.1721 16.4486 11.8415 16.0187C13.3216 15.0187 14.3303 13.701 14.5189 11.8972C14.7074 10.0935 14.3303 8.486 13.0859 7.11217C12.2751 6.21497 11.2664 5.59815 10.0785 5.40189C8.92832 5.21497 7.74044 5.2617 6.63741 5.78506C5.53438 6.30843 4.72361 7.06544 4.14852 8.05609C3.5263 9.00936 3.29061 10 3.33775 11.0935Z" fill="white"/>
<path d="M52.4839 7.75703C51.9088 7.18693 51.2394 6.59815 50.6172 6.21497C49.1842 5.41123 47.6569 5.16824 46.0731 5.50469C44.3479 5.88787 43.1128 6.83179 42.2455 8.34581C41.859 9.00936 41.6233 9.71964 41.6233 10.4767C41.6233 11.1869 41.6233 11.9439 41.8118 12.6542C42.0947 13.6449 42.6226 14.458 43.3862 15.1682C45.1021 16.729 47.1101 17.1589 49.3633 16.5888C50.7492 16.2617 51.6542 15.3084 52.2293 13.9813H47.8266C47.393 13.9813 47.393 13.9813 47.393 13.5514V11.3738C47.393 11.0467 47.393 11.0467 47.7324 11.0467H55.5761C55.9155 11.0467 55.9155 11.0467 55.9155 11.3738C55.9627 12.514 55.8213 13.5981 55.3876 14.6449C54.9068 15.8785 54.1903 16.9626 53.2381 17.8692C52.2859 18.7664 51.1829 19.3832 49.8913 19.6729C48.5997 20 47.261 20.0561 45.9694 19.8131C44.9701 19.6729 44.0085 19.3832 43.1505 18.9626C42.0004 18.3925 41.001 17.5888 40.2374 16.5888C39.4738 15.5981 38.9458 14.5047 38.6159 13.271C38.2765 11.9439 38.2293 10.6168 38.5216 9.24301C38.9553 7.11217 40.096 5.40189 41.7741 4.07478C42.7734 3.27104 43.9236 2.74768 45.1681 2.51403C46.7425 2.18693 48.2792 2.23366 49.8536 2.56076C51.7202 2.94394 53.2475 3.88787 54.5391 5.21497C54.7276 5.40189 54.7276 5.44861 54.5391 5.69161C53.9169 6.2617 53.3041 6.84114 52.7196 7.49534C52.4839 7.75703 52.5782 7.66357 52.4839 7.75703Z" fill="white"/>
<path d="M23.2206 7.11217C23.2206 7.34581 23.2677 7.5888 23.2677 7.86918C23.3149 8.19628 23.3149 8.57946 23.362 8.9159C23.4091 9.14955 23.3149 9.19628 23.1263 9.24301C22.6455 9.28974 22.1741 9.38319 21.7404 9.42992C21.3539 9.47665 21.0239 9.52338 20.6374 9.57011C20.5903 9.57011 20.5431 9.61684 20.4489 9.66357C21.4482 9.89721 22.4098 10.0935 23.4091 10.2804C22.6926 13.0748 22.0233 15.8224 21.3539 18.6168C21.0145 18.5234 20.7317 18.4767 20.4489 18.4299C19.7795 18.2897 19.063 18.1028 18.3936 17.9066C18.158 17.8598 18.1108 17.7664 18.158 17.5234C18.4973 16.2897 18.7802 15.1028 19.063 13.8785C19.2516 13.0748 19.4495 12.271 19.6381 11.458C19.7324 10.9813 19.8738 10.514 19.9775 10.0841C20.0246 9.75703 20.1189 9.42058 20.0718 9.1402C19.9775 8.00002 19.8361 6.9159 19.6852 5.77572C19.5438 4.5888 19.4495 3.45796 19.2987 2.27104C19.2516 1.94394 19.2987 1.88787 19.6287 1.88787C20.298 1.79441 20.9202 1.74768 21.5425 1.65422C21.7782 1.65422 21.929 1.65422 22.1175 1.79441C24.0408 3.3645 25.9452 4.88787 27.9061 6.40189C28.1418 6.5888 28.3869 6.78506 28.7169 7.01871C28.764 6.92525 28.764 6.83179 28.8583 6.78506C30.2913 5.02805 31.7243 3.23366 33.1573 1.47665C33.4401 1.14955 33.6852 0.8131 33.9681 0.485997C34.0623 0.392539 34.2037 0.299081 34.298 0.252352C35.0145 0.158894 35.731 0.112165 36.4475 0.0187073C36.6361 0.0187073 36.6832 0.0187073 36.7303 0.205623C36.8246 1.39254 36.9189 2.47665 37.0603 3.57011C37.1546 4.66357 37.296 5.70095 37.4468 6.79441C37.494 7.22432 37.494 7.22432 37.0603 7.27104C36.3438 7.3645 35.6273 7.45796 34.958 7.60749H34.8637C34.0529 7.70095 34.1472 7.70095 34.1 7.0374C34.0529 6.7103 34.0529 6.37385 34.0058 5.94394C33.8643 6.08413 33.7701 6.17759 33.6758 6.27104C33.2421 6.74768 32.865 7.2617 32.4785 7.78506C32.3842 7.92525 32.2428 7.97198 32.092 7.97198C30.6118 8.1589 29.1317 8.40189 27.6987 8.63553C27.1236 8.72899 26.5957 8.77572 26.03 8.86917C25.7943 8.9159 25.5963 8.86917 25.4078 8.72899C24.7384 8.15889 24.0691 7.63553 23.3997 7.12151C23.3149 7.06544 23.2677 7.06544 23.2206 7.11217Z" fill="white"/>
<path d="M34.9862 21.9907C34.5054 21.8972 34.1283 21.8038 33.7418 21.7103C33.2138 21.5701 32.6859 21.4299 32.1202 21.2804C31.8846 21.2337 31.8846 21.1402 31.9317 20.9439C32.0731 20.3271 32.2145 19.7103 32.4125 19.0935C32.799 17.5327 33.2233 15.9626 33.6098 14.4019C33.7512 13.8785 33.8455 13.3552 33.9963 12.8411C34.0906 12.514 34.0906 12.514 34.43 12.5608C35.2879 12.7009 36.0987 12.8972 36.966 13.0841C37.3526 13.1776 37.3997 13.1776 37.2489 13.5608C37.0132 14.5047 36.7681 15.458 36.5324 16.4019C36.1458 17.8692 35.8159 19.3365 35.4293 20.8131C35.3822 21.0935 35.2879 21.3832 35.1936 21.6636C35.1276 21.8505 35.0334 21.9439 34.9862 21.9907Z" fill="white"/>
<path d="M32.0165 12.2337C30.6778 13.0374 29.3391 13.8411 27.9532 14.701C27.1896 13.4206 26.3788 12.1402 25.5586 10.7664C27.7553 11.243 29.9048 11.6636 32.0165 12.1402C31.9694 12.1402 31.9694 12.1869 32.0165 12.2337Z" fill="white"/>
<path d="M14.3303 28.6729H13.6138V28.243C13.2273 28.7664 12.7088 28.8131 12.5108 28.8131C11.6529 28.8131 10.8893 28.1495 10.8893 27.1028C10.8893 26.0561 11.6058 25.3458 12.5108 25.3458C12.9916 25.3458 13.3687 25.5327 13.5667 25.9159V25.4393H14.2832L14.3303 28.6729ZM11.6529 27.0654C11.6529 27.6355 12.0394 28.0094 12.6051 28.0094C13.1802 28.0094 13.5573 27.5795 13.5573 27.0094C13.5573 26.4393 13.1707 26.0187 12.6051 26.0187C12.0394 26.0187 11.6529 26.4486 11.6529 27.0654Z" fill="white"/>
<path d="M20.5526 28.1496C20.5526 29.3365 19.6947 29.9066 18.7802 29.9066C18.0165 29.9066 17.3472 29.4767 17.1586 28.7196H18.0637C18.2051 29.1495 18.6859 29.1963 18.7802 29.1963C19.3081 29.1963 19.7324 28.7664 19.7324 28.2991V28.2056C19.6381 28.3458 19.3458 28.729 18.7802 28.729C17.8751 28.729 17.1115 27.972 17.1115 27.0187C17.1115 26.0281 17.8751 25.3178 18.7802 25.3178C19.0159 25.3178 19.4967 25.3645 19.7795 25.8879V25.458H20.496L20.5526 28.1496ZM17.9223 26.972C17.9223 27.4953 18.2522 27.9626 18.8744 27.9626C19.4495 27.9626 19.8266 27.5327 19.8266 27.0187C19.8266 26.4486 19.4401 26.0281 18.8744 26.0281C18.2522 26.0187 17.9223 26.4953 17.9223 26.972Z" fill="white"/>
<path d="M24.2293 27.3458C24.3236 27.729 24.663 28.0094 25.0872 28.0094C25.3229 28.0094 25.6152 27.9159 25.8037 27.6823H26.7088C26.2751 28.729 25.2758 28.729 25.0872 28.729C23.8899 28.729 23.362 27.7851 23.362 27.0281C23.362 26.271 23.9371 25.271 25.1344 25.271C26.1337 25.271 26.8031 26.0281 26.8031 27.0281V27.3552H24.2293V27.3458ZM25.9923 26.6823C25.898 26.2524 25.5115 26.0187 25.1344 26.0187C24.7007 26.0187 24.3707 26.2991 24.2293 26.6823H25.9923Z" fill="white"/>
<path d="M29.6314 25.4019H30.3479V25.6823C30.4421 25.5421 30.7344 25.2524 31.2529 25.2524C32.0165 25.2524 32.5445 25.7757 32.5445 26.7196V28.6168H31.7808V26.9066C31.7808 26.1963 31.4509 26.0094 31.1115 26.0094C30.4893 26.0094 30.4421 26.6262 30.4421 26.9066V28.6636H29.6785L29.6314 25.4019Z" fill="white"/>
<path d="M38.861 27.5888C38.6253 28.2524 38.0502 28.7757 37.2394 28.7757C35.995 28.7757 35.4199 27.8318 35.4199 27.0187C35.4199 26.2617 35.995 25.3178 37.1923 25.3178C38.0031 25.3178 38.6253 25.7944 38.861 26.5047H37.9559C37.8145 26.2243 37.5223 26.0748 37.1923 26.0748C36.5701 26.0748 36.193 26.5514 36.193 27.0654C36.193 27.6355 36.5795 28.0561 37.1923 28.0561C37.3337 28.0561 37.7674 28.0094 37.9559 27.6262L38.861 27.5888Z" fill="white"/>
<path d="M44.6872 25.4019L42.7734 29.7664H41.9155L42.5378 28.3925L41.3404 25.458H42.2455L43.0091 27.5421L43.7728 25.458C43.8293 25.4019 44.6872 25.4019 44.6872 25.4019Z" fill="white"/>
</g>
<defs>
<clipPath id="clip0_62_645">
<rect width="56" height="30" fill="white"/>
</clipPath>
</defs>
</svg>
